<svg width="54" height="58" viewBox="0 0 54 58" fill="none" xmlns="http://www.w3.org/2000/svg">
<path d="M53.3333 48H0V42.6667H2.66667V24.0827C2.66667 10.7813 13.4133 0 26.6667 0C39.92 0 50.6667 10.7813 50.6667 24.0827V42.6667H53.3333V48ZM8 42.6667H45.3333V24.0827C45.3333 13.728 36.976 5.33333 26.6667 5.33333C16.3573 5.33333 8 13.728 8 24.0827V42.6667ZM20 50.6667H33.3333C33.3333 52.4348 32.631 54.1305 31.3807 55.3807C30.1305 56.631 28.4348 57.3333 26.6667 57.3333C24.8986 57.3333 23.2029 56.631 21.9526 55.3807C20.7024 54.1305 20 52.4348 20 50.6667Z" fill="url(#paint0_linear_2007_375)"/>
<defs>
<linearGradient id="paint0_linear_2007_375" x1="-9.49495" y1="32.6901" x2="59.1919" y2="32.6901" gradientUnits="userSpaceOnUse">
<stop stop-color="#CE722C"/>
<stop offset="0.54096" stop-color="white"/>
<stop offset="1" stop-color="#CE722C"/>
</linearGradient>
</defs>
</svg>
